<svg id="visual" viewBox="0 0 900 600" width="900" height="600" xmlns="http://www.w3.org/2000/svg" xmlns:xlink="http://www.w3.org/1999/xlink" version="1.1"><g transform="translate(1012.2632385459842 -0.2037094028175943)"><path d="M388.8 -479.5C479.7 -387 512.6 -241.6 482.8 -127.1C453 -12.6 360.5 71.1 316.6 216.3C272.7 361.5 277.4 568.4 210.9 602.8C144.3 637.1 6.5 499 -140.6 427.5C-287.6 356.1 -443.9 351.3 -557.1 267.3C-670.3 183.4 -740.4 20.2 -711.5 -122.3C-682.6 -264.8 -554.7 -386.7 -419.6 -471.4C-284.5 -556.1 -142.3 -603.6 3.3 -607.5C148.9 -611.5 297.8 -571.9 388.8 -479.5" fill="#cfdeff"></path></g></svg>